<svg xmlns="http://www.w3.org/2000/svg" width="24" height="24" viewBox="0 0 24 24" fill="none" stroke="currentColor" stroke-width="2" stroke-linecap="round" stroke-linejoin="round">
  <path d="M19 4H5a2 2 0 0 0-2 2v14a2 2 0 0 0 2 2h14a2 2 0 0 0 2-2V6a2 2 0 0 0-2-2Z"></path>
  <path d="M16 2v4"></path>
  <path d="M8 2v4"></path>
  <path d="M3 10h18"></path>
  <path d="M8 14h.01"></path>
  <path d="M12 14h.01"></path>
  <path d="M16 14h.01"></path>
  <path d="M8 18h.01"></path>
  <path d="M12 18h.01"></path>
  <path d="M16 18h.01"></path>
</svg>
