<svg xmlns="http://www.w3.org/2000/svg" xmlns:xlink="http://www.w3.org/1999/xlink" width="500" zoomAndPan="magnify" viewBox="0 0 375 374.999991" height="500" preserveAspectRatio="xMidYMid meet" version="1.0"><defs><g/><clipPath id="0321a803e8"><path d="M 177 119.917969 L 247.460938 119.917969 L 247.460938 190 L 177 190 Z M 177 119.917969 " clip-rule="nonzero"/></clipPath><clipPath id="631554fc88"><path d="M 127.460938 148 L 198 148 L 198 218.917969 L 127.460938 218.917969 Z M 127.460938 148 " clip-rule="nonzero"/></clipPath></defs><g clip-path="url(#0321a803e8)"><path fill="#ff4c05" d="M 229.058594 131.996094 L 212.296875 122.34375 L 213.546875 122.351562 L 196.535156 131.957031 L 197.175781 130.84375 L 197.421875 149.996094 L 196.808594 148.929688 L 213.304688 158.808594 L 212.023438 158.800781 L 228.972656 148.929688 L 228.347656 150.011719 L 228.429688 130.898438 L 229.058594 131.996094 M 230.316406 129.8125 C 230.707031 130.039062 230.949219 130.457031 230.949219 130.910156 L 230.867188 150.023438 C 230.863281 150.46875 230.625 150.882812 230.242188 151.109375 L 213.289062 160.976562 C 212.894531 161.210938 212.402344 161.207031 212.007812 160.96875 L 195.515625 151.089844 C 195.140625 150.867188 194.90625 150.464844 194.902344 150.027344 L 194.65625 130.875 C 194.648438 130.414062 194.894531 129.988281 195.296875 129.761719 L 212.308594 120.15625 C 212.695312 119.9375 213.167969 119.9375 213.554688 120.160156 Z M 212.109375 160.671875 L 195.351562 151.019531 L 196.597656 151.023438 L 179.585938 160.628906 L 180.226562 159.515625 L 180.472656 178.667969 L 179.859375 177.605469 L 196.355469 187.484375 L 195.074219 187.476562 L 212.023438 177.605469 L 211.398438 178.6875 L 211.480469 159.574219 L 212.109375 160.671875 M 213.367188 158.488281 C 213.761719 158.710938 214 159.132812 214 159.582031 L 213.917969 178.699219 C 213.917969 179.144531 213.679688 179.558594 213.292969 179.78125 L 196.339844 189.652344 C 195.945312 189.882812 195.453125 189.878906 195.058594 189.644531 L 178.566406 179.765625 C 178.191406 179.542969 177.957031 179.140625 177.953125 178.703125 L 177.707031 159.550781 C 177.703125 159.089844 177.945312 158.664062 178.347656 158.4375 L 195.359375 148.832031 C 195.746094 148.613281 196.222656 148.613281 196.609375 148.835938 Z M 245.644531 160.757812 L 228.882812 151.105469 L 230.132812 151.113281 L 213.121094 160.71875 L 213.761719 159.605469 L 214.007812 178.757812 L 213.394531 177.691406 L 229.886719 187.570312 L 228.605469 187.5625 L 245.558594 177.691406 L 244.933594 178.773438 L 245.011719 159.660156 L 245.644531 160.757812 M 246.902344 158.574219 C 247.292969 158.800781 247.535156 159.21875 247.53125 159.671875 L 247.453125 178.785156 C 247.449219 179.230469 247.210938 179.644531 246.828125 179.867188 L 229.875 189.738281 C 229.476562 189.96875 228.988281 189.96875 228.59375 189.730469 L 212.097656 179.851562 C 211.722656 179.628906 211.492188 179.226562 211.488281 178.789062 L 211.242188 159.636719 C 211.234375 159.175781 211.480469 158.75 211.882812 158.523438 L 228.894531 148.917969 C 229.28125 148.699219 229.753906 148.699219 230.140625 148.921875 Z M 246.902344 158.574219 " fill-opacity="1" fill-rule="nonzero"/></g><g clip-path="url(#631554fc88)"><path fill="#ff4c05" d="M 178.816406 160.851562 L 162.054688 151.199219 L 163.304688 151.203125 L 146.292969 160.808594 L 146.933594 159.695312 L 147.179688 178.847656 L 146.566406 177.785156 L 163.0625 187.664062 L 161.78125 187.65625 L 178.730469 177.785156 L 178.105469 178.867188 L 178.1875 159.753906 L 178.816406 160.851562 M 180.074219 158.667969 C 180.464844 158.890625 180.707031 159.3125 180.707031 159.761719 L 180.625 178.878906 C 180.621094 179.324219 180.382812 179.738281 180 179.960938 L 163.046875 189.832031 C 162.652344 190.0625 162.160156 190.0625 161.765625 189.824219 L 145.273438 179.945312 C 144.898438 179.722656 144.664062 179.320312 144.660156 178.882812 L 144.414062 159.730469 C 144.40625 159.269531 144.652344 158.84375 145.054688 158.617188 L 162.066406 149.011719 C 162.453125 148.792969 162.925781 148.792969 163.3125 149.015625 Z M 161.867188 189.523438 L 145.109375 179.875 L 146.355469 179.878906 L 129.34375 189.484375 L 129.984375 188.371094 L 130.230469 207.523438 L 129.617188 206.460938 L 146.113281 216.339844 L 144.832031 216.328125 L 161.78125 206.460938 L 161.15625 207.542969 L 161.238281 188.425781 L 161.867188 189.523438 M 163.125 187.339844 C 163.519531 187.566406 163.757812 187.984375 163.757812 188.4375 L 163.675781 207.554688 C 163.675781 208 163.4375 208.410156 163.050781 208.636719 L 146.097656 218.507812 C 145.703125 218.738281 145.210938 218.734375 144.816406 218.5 L 128.324219 208.621094 C 127.949219 208.394531 127.714844 207.992188 127.710938 207.554688 L 127.464844 188.402344 C 127.460938 187.945312 127.703125 187.515625 128.105469 187.289062 L 145.117188 177.683594 C 145.503906 177.464844 145.980469 177.46875 146.367188 177.691406 Z M 195.402344 189.609375 L 178.640625 179.960938 L 179.890625 179.964844 L 162.878906 189.570312 L 163.519531 188.457031 L 163.765625 207.609375 L 163.152344 206.546875 L 179.644531 216.425781 L 178.363281 216.417969 L 195.316406 206.546875 L 194.691406 207.628906 L 194.773438 188.515625 L 195.402344 189.609375 M 196.660156 187.429688 C 197.050781 187.652344 197.292969 188.074219 197.292969 188.523438 L 197.210938 207.640625 C 197.207031 208.085938 196.96875 208.5 196.585938 208.722656 L 179.632812 218.59375 C 179.238281 218.824219 178.746094 218.820312 178.351562 218.585938 L 161.855469 208.707031 C 161.480469 208.484375 161.25 208.078125 161.246094 207.644531 L 161 188.492188 C 160.992188 188.03125 161.238281 187.605469 161.640625 187.378906 L 178.652344 177.773438 C 179.039062 177.554688 179.511719 177.554688 179.898438 177.777344 Z M 196.660156 187.429688 " fill-opacity="1" fill-rule="nonzero"/></g><g fill="#000000" fill-opacity="1"><g transform="translate(127.424959, 252.203319)"><g><path d="M 11.296875 0.65625 C 9.273438 0.65625 7.492188 0.304688 5.953125 -0.390625 C 4.421875 -1.097656 3.222656 -2.132812 2.359375 -3.5 C 1.492188 -4.875 1.0625 -6.546875 1.0625 -8.515625 L 1.0625 -18.6875 L 3.28125 -18.6875 L 3.28125 -8.484375 C 3.28125 -6.890625 3.617188 -5.566406 4.296875 -4.515625 C 4.984375 -3.460938 5.925781 -2.671875 7.125 -2.140625 C 8.332031 -1.617188 9.734375 -1.359375 11.328125 -1.359375 C 12.910156 -1.359375 14.300781 -1.617188 15.5 -2.140625 C 16.707031 -2.671875 17.644531 -3.460938 18.3125 -4.515625 C 18.988281 -5.566406 19.328125 -6.890625 19.328125 -8.484375 L 19.328125 -18.6875 L 21.53125 -18.6875 L 21.53125 -8.515625 C 21.53125 -6.546875 21.097656 -4.875 20.234375 -3.5 C 19.367188 -2.132812 18.171875 -1.097656 16.640625 -0.390625 C 15.109375 0.304688 13.328125 0.65625 11.296875 0.65625 Z M 11.296875 0.65625 "/></g></g></g><g fill="#000000" fill-opacity="1"><g transform="translate(150.009553, 252.203319)"><g><path d="M 1.328125 0 L 1.328125 -18.6875 L 4.265625 -18.6875 L 19.171875 -2.234375 L 19.203125 -2.234375 L 19.203125 -18.6875 L 21.421875 -18.6875 L 21.421875 0 L 18.484375 0 L 3.546875 -16.4375 L 3.53125 -16.4375 L 3.53125 0 Z M 1.328125 0 "/></g></g></g><g fill="#000000" fill-opacity="1"><g transform="translate(172.753184, 252.203319)"><g><path d="M 1.328125 0 L 1.328125 -18.6875 L 3.53125 -18.6875 L 3.53125 0 Z M 1.328125 0 "/></g></g></g><g fill="#ff4c05" fill-opacity="1"><g transform="translate(177.604644, 252.203319)"><g><path d="M 1.328125 0 L 1.328125 -18.6875 L 3.53125 -18.6875 L 3.53125 -10.765625 L 19.171875 -10.765625 L 19.171875 -18.6875 L 21.375 -18.6875 L 21.375 0 L 19.171875 0 L 19.171875 -8.828125 L 3.53125 -8.828125 L 3.53125 0 Z M 1.328125 0 "/></g></g></g><g fill="#ff4c05" fill-opacity="1"><g transform="translate(200.295267, 252.203319)"><g><path d="M 1.328125 0 L 1.328125 -18.6875 L 3.53125 -18.6875 L 3.53125 0 Z M 1.328125 0 "/></g></g></g><g fill="#ff4c05" fill-opacity="1"><g transform="translate(205.146176, 252.203319)"><g><path d="M 9.890625 0 L 0 -18.6875 L 2.46875 -18.6875 L 11.109375 -2.359375 L 11.140625 -2.359375 L 19.75 -18.6875 L 22.21875 -18.6875 L 12.328125 0 Z M 9.890625 0 "/></g></g></g><g fill="#ff4c05" fill-opacity="1"><g transform="translate(227.359661, 252.203319)"><g><path d="M 1.328125 0 L 1.328125 -18.6875 L 19.40625 -18.6875 L 19.40625 -16.734375 L 3.46875 -16.734375 L 3.46875 -10.609375 L 18.34375 -10.609375 L 18.34375 -8.703125 L 3.46875 -8.703125 L 3.46875 -1.9375 L 19.671875 -1.9375 L 19.671875 0 Z M 1.328125 0 "/></g></g></g></svg>