<svg xmlns="http://www.w3.org/2000/svg" xmlns:xlink="http://www.w3.org/1999/xlink" width="500" zoomAndPan="magnify" viewBox="0 0 375 374.999991" height="500" preserveAspectRatio="xMidYMid meet" version="1.0"><defs><g/><clipPath id="58901e9728"><path d="M 170 88.414062 L 292.371094 88.414062 L 292.371094 211 L 170 211 Z M 170 88.414062 " clip-rule="nonzero"/></clipPath><clipPath id="c83bdc7081"><path d="M 82.371094 139 L 205 139 L 205 261.664062 L 82.371094 261.664062 Z M 82.371094 139 " clip-rule="nonzero"/></clipPath></defs><g clip-path="url(#58901e9728)"><path fill="#ff4c05" d="M 260.28125 109.558594 L 230.929688 92.660156 L 233.113281 92.667969 L 203.324219 109.492188 L 204.445312 107.542969 L 204.875 141.078125 L 203.804688 139.214844 L 232.6875 156.511719 L 230.445312 156.5 L 260.128906 139.214844 L 259.03125 141.113281 L 259.175781 107.640625 L 260.28125 109.558594 M 262.480469 105.738281 C 263.167969 106.132812 263.589844 106.863281 263.585938 107.65625 L 263.445312 141.128906 C 263.441406 141.914062 263.023438 142.632812 262.347656 143.027344 L 232.664062 160.3125 C 231.96875 160.714844 231.109375 160.710938 230.421875 160.296875 L 201.539062 143 C 200.878906 142.605469 200.476562 141.902344 200.464844 141.136719 L 200.035156 107.597656 C 200.023438 106.792969 200.453125 106.042969 201.15625 105.648438 L 230.945312 88.828125 C 231.625 88.445312 232.457031 88.449219 233.132812 88.835938 Z M 230.601562 159.773438 L 201.25 142.875 L 203.4375 142.882812 L 173.648438 159.703125 L 174.769531 157.753906 L 175.199219 191.292969 L 174.125 189.425781 L 203.011719 206.726562 L 200.765625 206.710938 L 230.449219 189.425781 L 229.355469 191.324219 L 229.496094 157.851562 L 230.601562 159.773438 M 232.800781 155.949219 C 233.488281 156.34375 233.910156 157.078125 233.90625 157.871094 L 233.765625 191.34375 C 233.761719 192.125 233.347656 192.847656 232.671875 193.238281 L 202.988281 210.523438 C 202.292969 210.929688 201.433594 210.925781 200.742188 210.511719 L 171.859375 193.210938 C 171.203125 192.820312 170.796875 192.113281 170.785156 191.347656 L 170.355469 157.808594 C 170.347656 157.003906 170.777344 156.257812 171.476562 155.859375 L 201.265625 139.039062 C 201.945312 138.65625 202.777344 138.660156 203.453125 139.050781 Z M 289.324219 159.925781 L 259.972656 143.023438 L 262.160156 143.035156 L 232.367188 159.855469 L 233.488281 157.90625 L 233.921875 191.441406 L 232.847656 189.578125 L 261.730469 206.878906 L 259.488281 206.863281 L 289.171875 189.578125 L 288.078125 191.476562 L 288.21875 158.003906 L 289.324219 159.925781 M 291.523438 156.101562 C 292.210938 156.496094 292.632812 157.230469 292.628906 158.023438 L 292.488281 191.496094 C 292.484375 192.277344 292.066406 193 291.390625 193.390625 L 261.707031 210.675781 C 261.015625 211.082031 260.15625 211.074219 259.464844 210.664062 L 230.582031 193.363281 C 229.925781 192.972656 229.519531 192.265625 229.507812 191.5 L 229.078125 157.960938 C 229.066406 157.15625 229.496094 156.410156 230.199219 156.011719 L 259.988281 139.191406 C 260.667969 138.808594 261.5 138.8125 262.175781 139.203125 Z M 291.523438 156.101562 " fill-opacity="1" fill-rule="nonzero"/></g><g clip-path="url(#c83bdc7081)"><path fill="#ff4c05" d="M 172.300781 160.085938 L 142.949219 143.1875 L 145.132812 143.199219 L 115.34375 160.019531 L 116.464844 158.070312 L 116.898438 191.605469 L 115.824219 189.742188 L 144.707031 207.039062 L 142.464844 207.027344 L 172.148438 189.742188 L 171.054688 191.640625 L 171.195312 158.167969 L 172.300781 160.085938 M 174.5 156.265625 C 175.1875 156.660156 175.609375 157.394531 175.605469 158.183594 L 175.464844 191.65625 C 175.460938 192.441406 175.042969 193.160156 174.367188 193.554688 L 144.683594 210.839844 C 143.992188 211.246094 143.128906 211.238281 142.441406 210.824219 L 113.558594 193.527344 C 112.902344 193.132812 112.496094 192.429688 112.484375 191.664062 L 112.054688 158.125 C 112.042969 157.320312 112.472656 156.574219 113.175781 156.175781 L 142.964844 139.355469 C 143.644531 138.972656 144.476562 138.976562 145.152344 139.363281 Z M 142.621094 210.300781 L 113.269531 193.402344 L 115.457031 193.410156 L 85.667969 210.230469 L 86.789062 208.28125 L 87.21875 241.820312 L 86.144531 239.953125 L 115.03125 257.253906 L 112.785156 257.238281 L 142.46875 239.953125 L 141.375 241.851562 L 141.515625 208.378906 L 142.621094 210.300781 M 144.824219 206.476562 C 145.507812 206.871094 145.929688 207.605469 145.929688 208.398438 L 145.785156 241.871094 C 145.78125 242.652344 145.367188 243.375 144.691406 243.769531 L 115.007812 261.050781 C 114.3125 261.457031 113.453125 261.453125 112.761719 261.039062 L 83.878906 243.738281 C 83.222656 243.347656 82.816406 242.640625 82.808594 241.875 L 82.375 208.339844 C 82.367188 207.53125 82.796875 206.785156 83.496094 206.390625 L 113.285156 189.570312 C 113.964844 189.183594 114.796875 189.1875 115.472656 189.578125 Z M 201.34375 210.453125 L 171.992188 193.550781 L 174.179688 193.5625 L 144.386719 210.382812 L 145.507812 208.433594 L 145.941406 241.972656 L 144.867188 240.105469 L 173.75 257.40625 L 171.507812 257.390625 L 201.191406 240.105469 L 200.097656 242.003906 L 200.238281 208.53125 L 201.34375 210.453125 M 203.542969 206.628906 C 204.230469 207.023438 204.652344 207.757812 204.648438 208.550781 L 204.507812 242.023438 C 204.503906 242.804688 204.089844 243.527344 203.414062 243.917969 L 173.726562 261.203125 C 173.035156 261.609375 172.175781 261.601562 171.484375 261.191406 L 142.601562 243.890625 C 141.945312 243.5 141.539062 242.792969 141.527344 242.027344 L 141.097656 208.488281 C 141.085938 207.683594 141.515625 206.9375 142.21875 206.539062 L 172.007812 189.71875 C 172.6875 189.335938 173.519531 189.339844 174.195312 189.730469 Z M 203.542969 206.628906 " fill-opacity="1" fill-rule="nonzero"/></g><g fill="#000000" fill-opacity="1"><g transform="translate(187.368023, 179.125162)"><g><path d="M 0.125 0 C 0.113281 0 0.101562 -0.00390625 0.09375 -0.015625 C 0.0820312 -0.0234375 0.078125 -0.0351562 0.078125 -0.046875 C 0.078125 -0.0664062 0.0820312 -0.0820312 0.09375 -0.09375 C 0.101562 -0.101562 0.113281 -0.109375 0.125 -0.109375 C 0.144531 -0.109375 0.160156 -0.101562 0.171875 -0.09375 C 0.179688 -0.0820312 0.1875 -0.0664062 0.1875 -0.046875 C 0.1875 -0.0351562 0.179688 -0.0234375 0.171875 -0.015625 C 0.160156 -0.00390625 0.144531 0 0.125 0 Z M 0.125 0 "/></g></g></g></svg>